<?xml version="1.0" encoding="UTF-8" standalone="no"?>
<svg
   id="svg51"
   version="1.1"
   viewBox="0 0 150 150"
   height="150"
   width="150"
   xmlns="http://www.w3.org/2000/svg">
  <!-- Generator: Sketch 3.7.2 (28276) - http://www.bohemiancoding.com/sketch -->
  <title
     id="title2">logo_lockup_summer_of_code_horizontal_Roboto</title>
  <desc
     id="desc4">Created with Sketch.</desc>
  <defs
     id="defs6" />
  <g
     id="Group"
     transform="matrix(0.85421419,0,0,0.85421419,-44.931662,-0.76879274)">
    <rect
       style="fill:#ffffff;stroke-width:1.18987"
       id="rect1"
       width="150"
       height="149.99998"
       x="1.2292902e-07"
       y="5.3735754e-09"
       transform="matrix(1.1706666,0,0,1.1706666,52.599995,0.89999996)" />
    <path
       style="fill:#fbbc05;stroke-width:0.999999"
       d="m 114.7,150.8 25.7,25.7 25.7,-25.7 h 36.4 V 114.4 L 228.19998,88.699998 202.5,62.999995 V 26.599998 H 166.1 L 140.4,0.89999997 114.7,26.599998 H 78.299993 V 62.999995 L 52.599995,88.699998 78.299993,114.4 v 36.4 z"
       id="Shape" />
    <path
       style="fill:#ffffff;stroke-width:0.999999"
       id="path11"
       d="m 143.2,61.199995 -0.1,0.4 -11.9,52.500005 -0.4,2 h 7.4 l 0.1,-0.4 11.9,-52.500004 0.4,-2.000001 z m -18.9,7.199999 -1,0.7 -21.5,16.700003 -1.4,1.100001 v 3.399997 l 1.4,1.099998 21.5,16.700007 1,0.7 V 99.799999 L 109.8,88.699998 124.3,77.399994 Z m 32.2,0 v 9 L 171,88.699998 156.5,99.999997 V 109 l 1,-0.7 21.5,-16.7 1.4,-1.100007 V 87.099997 L 179,85.999998 157.4,69.199994 Z" />
    <circle
       id="Oval"
       cx="140.39999"
       cy="88.699997"
       r="58.700001"
       style="fill:none;stroke:#ffffff;stroke-width:8" />
  </g>
</svg>
