<?xml version="1.0" encoding="UTF-8" standalone="no"?>
<svg
   viewBox="0 -10 150 150"
   version="1.1"
   id="svg14"
   width="150"
   height="150"
   xmlns="http://www.w3.org/2000/svg">
  <defs
     id="defs1">
    <style
       id="style1">.cls-1{fill:#1565c0;}</style>
  </defs>
  <title
     id="title1">Asset 275</title>
  <rect x="0" y="-10" width="150" height="150" fill="white" />
  <path
     class="cls-1"
     d="M 118.78082,98.706373 A 24.749841,24.749841 0 0 1 97.373557,86.540364 l -1.474668,-2.310313 -1.720446,2.089113 A 33.622425,33.622425 0 0 1 68.076824,98.608062 34.01567,34.01567 0 0 1 44.236362,88.776944 l -1.695868,-1.695868 -1.253468,2.039957 A 18.384191,18.384191 0 1 1 32.021197,62.085457 l 2.433202,0.958534 0.294934,-2.457779 a 33.79447,33.79447 0 0 1 65.376947,-7.05383 l 0.90937,2.457782 2.08912,-1.695871 a 24.946463,24.946463 0 1 1 15.75436,44.240036 z m 0,-42.37212 a 17.40108,17.40108 0 1 0 17.40108,17.40108 17.425657,17.425657 0 0 0 -17.40108,-17.40108 z M 68.199713,38.662815 A 26.249086,26.249086 0 1 0 94.448799,64.911904 26.273664,26.273664 0 0 0 68.199713,38.662815 Z M 25.803015,68.598573 a 10.838808,10.838808 0 1 0 10.81423,10.838808 10.838808,10.838808 0 0 0 -10.81423,-10.838808 z"
     id="path10"
     style="stroke-width:2.45778" />
  <metadata
     id="metadata14">
  </metadata>
</svg>
